{"title":"Don 2 (2011) x264 DvDScr 300mb","uid":6918783,"size":322711757,"categoryP":"video","categoryS":"movies","magnet":"?xt=urn:btih:8bb96c742b10d187351dc523fa84c8e571c1fe08&amp;dn=Don+2+%282011%29+x264+DvDScr+300mb&amp;tr=udp%3A%2F%2Ftracker.openbittorrent.com%3A80&amp;tr=udp%3A%2F%2Fopen.demonii.com%3A1337&amp;tr=udp%3A%2F%2Ftracker.coppersurfer.tk%3A6969&amp;tr=udp%3A%2F%2Fexodus.desync.com%3A6969","seeders":0,"leechers":1,"uploader":"pirate0610","files":-1,"time":1325136135,"description":"Don 2 (2011) x264 DvDScr 300mb\n\n\n\nVideo\nID                               : 1\nFormat                           : AVC\nFormat/Info                      : Advanced Video Codec\nFormat profile                   : &lt;a class=&quot;__cf_email__&quot; href=&quot;/cdn-cgi/l/email-protection&quot; data-cfemail=&quot;f0b8999798b0bcc2dec1&quot;&gt;[email&amp;#160;protected]&lt;/a&gt;&lt;script cf-hash='f9e31' type=&quot;text/javascript&quot;&gt;\n/* &lt;![CDATA[ */!function(){try{var t=&quot;currentScript&quot;in document?document.currentScript:function(){for(var t=document.getElementsByTagName(&quot;script&quot;),e=t.length;e--;)if(t[e].getAttribute(&quot;cf-hash&quot;))return t[e]}();if(t&amp;&amp;t.previousSibling){var e,r,n,i,c=t.previousSibling,a=c.getAttribute(&quot;data-cfemail&quot;);if(a){for(e=&quot;&quot;,r=parseInt(a.substr(0,2),16),n=2;a.length-n;n+=2)i=parseInt(a.substr(n,2),16)^r,e+=String.fromCharCode(i);e=document.createTextNode(e),c.parentNode.replaceChild(e,c)}}}catch(u){}}();/* ]]&gt; */&lt;/script&gt;\nFormat settings, CABAC           : Yes\nFormat settings, ReFrames        : 8 frames\nDuration                         : 2h 20mn\nBit rate                         : 244 Kbps\nNominal bit rate                 : 260 Kbps\nWidth                            : 624 pixels\nHeight                           : 240 pixels\nDisplay aspect ratio             : 2.600\nFrame rate                       : 25.000 fps\nColor space                      : YUV\nChroma subsampling               : 4:2:0\nBit depth                        : 8 bits\nScan type                        : Progressive\nBits/(Pixel*Frame)               : 0.065\nStream size                      : 245 MiB (80%)\nWriting library                  : x264 core\n\nAudio\nID                               : 2\nFormat settings, Floor           : 1\nDuration                         : 2h 20mn\nBit rate mode                    : Constant\nBit rate                         : 56.0 Kbps\nChannel(s)                       : 2 channels\nSampling rate                    : 24.0 KHz\nStream size                      : 56.2 MiB (18%)\n\n\nScreens\n &lt;a href=&quot;\nhttp://www.shotpix.com/images/47642734884210255693.jpg&quot; rel=&quot;nofollow&quot; target=&quot;_NEW&quot;&gt;\nhttp://www.shotpix.com/images/47642734884210255693.jpg&lt;/a&gt;\n &lt;a href=&quot;\nhttp://www.shotpix.com/images/50774925274137924071.jpg&quot; rel=&quot;nofollow&quot; target=&quot;_NEW&quot;&gt;\nhttp://www.shotpix.com/images/50774925274137924071.jpg&lt;/a&gt;\n &lt;a href=&quot;\nhttp://www.shotpix.com/images/54401800497220649446.jpg&quot; rel=&quot;nofollow&quot; target=&quot;_NEW&quot;&gt;\nhttp://www.shotpix.com/images/54401800497220649446.jpg&lt;/a&gt;\n &lt;a href=&quot;\nhttp://www.shotpix.com/images/76921015065152452668.jpg&quot; rel=&quot;nofollow&quot; target=&quot;_NEW&quot;&gt;\nhttp://www.shotpix.com/images/76921015065152452668.jpg&lt;/a&gt;\n &lt;a href=&quot;\nhttp://www.shotpix.com/images/29154825961486685468.jpg&quot; rel=&quot;nofollow&quot; target=&quot;_NEW&quot;&gt;\nhttp://www.shotpix.com/images/29154825961486685468.jpg&lt;/a&gt;","torrent":{"xt":"urn:btih:8bb96c742b10d187351dc523fa84c8e571c1fe08","amp;dn":"Don+2+%282011%29+x264+DvDScr+300mb","amp;tr":["udp%3A%2F%2Ftracker.openbittorrent.com%3A80","udp%3A%2F%2Fopen.demonii.com%3A1337","udp%3A%2F%2Ftracker.coppersurfer.tk%3A6969","udp%3A%2F%2Fexodus.desync.com%3A6969"],"infoHash":"8bb96c742b10d187351dc523fa84c8e571c1fe08","infoHashBuffer":{"type":"Buffer","data":[139,185,108,116,43,16,209,135,53,29,197,35,250,132,200,229,113,193,254,8]},"announce":[],"urlList":[]}}